<?xml version="1.0" encoding="utf-8"?>
<!-- Generator: Adobe Illustrator 24.0.1, SVG Export Plug-In . SVG Version: 6.00 Build 0)  -->
<svg xmlns="http://www.w3.org/2000/svg" xmlns:xlink="http://www.w3.org/1999/xlink" x="0px" y="0px"
	 viewBox="0 0 702 274" xml:space="preserve">
<style type="text/css">
	.st0{fill:none;stroke:#FFFFFF;stroke-width:1.3228;stroke-miterlimit:8;}
	.st1{fill:#FFFFFF;}
	.st2{fill-rule:evenodd;clip-rule:evenodd;fill:#FFFFFF;}
	.st3{fill:#B80C09;}
	.st4{fill:#E85A02;}
	.st5{fill:#FFBB01;}
</style>
<rect x="-337" y="731" width="1434" height="716"/>
<polygon class="st0" points="36.99,8.75 238.85,8.75 238.85,209.49 36.99,209.49 36.99,8.75 "/>
<polygon class="st0" points="238.85,8.75 439.48,8.75 439.48,209.49 238.85,209.49 238.85,8.75 "/>
<polygon class="st0" points="439.48,8.75 641.34,8.75 641.34,209.49 439.48,209.49 439.48,8.75 "/>
<g>
	<path class="st1" d="M280.06,110.15c0-18.42,5.13-32.76,15.39-43.03c10.26-10.26,24.54-15.39,42.85-15.39
		c18.77,0,33.23,5.04,43.39,15.13c10.16,10.08,15.23,24.21,15.23,42.37c0,13.19-2.22,24-6.65,32.44
		c-4.44,8.44-10.85,15.01-19.23,19.71c-8.39,4.69-18.84,7.04-31.35,7.04c-12.72,0-23.25-2.03-31.58-6.08
		c-8.33-4.05-15.09-10.47-20.27-19.24C282.65,134.32,280.06,123.34,280.06,110.15z M314.91,110.3c0,11.39,2.12,19.58,6.35,24.55
		c4.23,4.98,9.99,7.47,17.27,7.47c7.49,0,13.28-2.44,17.39-7.31c4.1-4.88,6.15-13.62,6.15-26.25c0-10.62-2.14-18.38-6.42-23.28
		c-4.28-4.9-10.09-7.35-17.42-7.35c-7.03,0-12.67,2.49-16.92,7.47C317.03,90.57,314.91,98.81,314.91,110.3z"/>
</g>
<g>
	<path class="st1" d="M479.04,51.33h38.71l22.72,38.07l22.77-38.07h38.5l-43.85,65.58v47.26h-34.93v-47.26L479.04,51.33z"/>
</g>
<g>
	<path class="st1" d="M88.45,164.17V51.33h58.08c10.77,0,19,0.92,24.69,2.77c5.69,1.85,10.28,5.27,13.77,10.28
		c3.49,5,5.23,11.1,5.23,18.28c0,6.26-1.33,11.66-4,16.2c-2.67,4.54-6.34,8.22-11.01,11.04c-2.98,1.8-7.06,3.29-12.24,4.46
		c4.15,1.39,7.17,2.77,9.07,4.16c1.28,0.92,3.14,2.9,5.57,5.93c2.43,3.03,4.06,5.37,4.88,7.01l16.88,32.7h-39.38l-18.63-34.48
		c-2.36-4.46-4.46-7.36-6.31-8.7c-2.51-1.74-5.36-2.62-8.54-2.62h-3.08v45.8H88.45z M123.45,97.05h14.69c1.59,0,4.67-0.51,9.23-1.54
		c2.31-0.46,4.19-1.64,5.65-3.54c1.46-1.9,2.19-4.08,2.19-6.54c0-3.64-1.15-6.44-3.46-8.39c-2.31-1.95-6.64-2.92-13-2.92h-15.31
		V97.05z"/>
</g>
<polygon class="st2" points="238.85,88.8 250.54,108.51 238.85,128.21 227.16,108.51 238.85,88.8 "/>
<polygon class="st2" points="439.48,88.8 451.18,108.51 439.48,128.21 427.79,108.51 439.48,88.8 "/>
<polygon class="st2" points="37.28,50.14 36.57,76.02 17.11,95.5 4.53,82.92 23.99,63.44 4.53,43.96 17.81,30.66 37.28,50.14 
	37.28,50.14 "/>
<polygon class="st2" points="642,185.52 666.62,185.52 666.62,210.15 642,210.15 642,185.52 "/>
<g>
	<path class="st1" d="M141.72,247.39l4.98,1.5c-0.33,1.4-0.86,2.56-1.58,3.5c-0.72,0.94-1.61,1.64-2.68,2.12
		c-1.07,0.48-2.42,0.71-4.07,0.71c-2,0-3.63-0.29-4.89-0.87c-1.27-0.58-2.36-1.6-3.28-3.06c-0.92-1.46-1.38-3.33-1.38-5.61
		c0-3.04,0.81-5.38,2.43-7.01c1.62-1.63,3.9-2.45,6.86-2.45c2.31,0,4.13,0.47,5.46,1.4c1.32,0.94,2.31,2.37,2.95,4.31l-5.01,1.12
		c-0.18-0.56-0.36-0.97-0.55-1.23c-0.32-0.43-0.71-0.77-1.17-1c-0.46-0.23-0.97-0.35-1.54-0.35c-1.29,0-2.27,0.52-2.96,1.55
		c-0.52,0.77-0.78,1.97-0.78,3.62c0,2.04,0.31,3.43,0.93,4.19c0.62,0.76,1.49,1.13,2.61,1.13c1.09,0,1.91-0.3,2.46-0.92
		C141.06,249.44,141.47,248.55,141.72,247.39z"/>
	<path class="st1" d="M149.52,254.91v-18.37h9.46c1.75,0,3.1,0.15,4.02,0.45c0.93,0.3,1.68,0.86,2.24,1.67
		c0.57,0.81,0.85,1.81,0.85,2.98c0,1.02-0.22,1.9-0.65,2.64c-0.44,0.74-1.03,1.34-1.79,1.8c-0.48,0.29-1.15,0.53-1.99,0.73
		c0.68,0.23,1.17,0.45,1.48,0.68c0.21,0.15,0.51,0.47,0.91,0.97c0.4,0.49,0.66,0.87,0.8,1.14l2.75,5.32h-6.42l-3.04-5.62
		c-0.38-0.73-0.73-1.2-1.03-1.42c-0.41-0.28-0.87-0.43-1.39-0.43h-0.5v7.46H149.52z M155.23,243.98h2.39c0.26,0,0.76-0.08,1.5-0.25
		c0.38-0.08,0.68-0.27,0.92-0.58c0.24-0.31,0.36-0.66,0.36-1.07c0-0.59-0.19-1.05-0.56-1.37c-0.38-0.32-1.08-0.48-2.12-0.48h-2.49
		V243.98z"/>
	<path class="st1" d="M169.4,236.54h15.22v3.92h-9.53v2.92h8.84v3.75h-8.84v3.62h9.8v4.16H169.4V236.54z"/>
	<path class="st1" d="M199.25,251.88h-6.45l-0.9,3.03h-5.8l6.91-18.37h6.19l6.9,18.37h-5.95L199.25,251.88z M198.07,247.91
		l-2.03-6.61l-2.01,6.61H198.07z"/>
	<path class="st1" d="M204.86,236.54h17.26v4.54h-5.79v13.84h-5.68v-13.84h-5.79V236.54z"/>
	<path class="st1" d="M224.91,236.54h5.69v18.37h-5.69V236.54z"/>
	<path class="st1" d="M232.87,236.54h5.94l4.14,13.22l4.08-13.22h5.76l-6.82,18.37h-6.15L232.87,236.54z"/>
	<path class="st1" d="M254.63,236.54h15.22v3.92h-9.53v2.92h8.84v3.75h-8.84v3.62h9.8v4.16h-15.49V236.54z"/>
	<path class="st1" d="M293.98,247.39l4.98,1.5c-0.33,1.4-0.86,2.56-1.58,3.5c-0.72,0.94-1.61,1.64-2.68,2.12
		c-1.07,0.48-2.42,0.71-4.07,0.71c-2,0-3.63-0.29-4.89-0.87c-1.27-0.58-2.36-1.6-3.28-3.06c-0.92-1.46-1.38-3.33-1.38-5.61
		c0-3.04,0.81-5.38,2.42-7.01c1.62-1.63,3.9-2.45,6.86-2.45c2.31,0,4.13,0.47,5.46,1.4c1.32,0.94,2.31,2.37,2.95,4.31l-5.01,1.12
		c-0.17-0.56-0.36-0.97-0.55-1.23c-0.32-0.43-0.71-0.77-1.17-1c-0.46-0.23-0.97-0.35-1.54-0.35c-1.29,0-2.27,0.52-2.96,1.55
		c-0.52,0.77-0.78,1.97-0.78,3.62c0,2.04,0.31,3.43,0.93,4.19c0.62,0.76,1.49,1.13,2.61,1.13c1.09,0,1.91-0.3,2.46-0.92
		C293.32,249.44,293.72,248.55,293.98,247.39z"/>
	<path class="st1" d="M300.99,245.74c0-3,0.83-5.33,2.51-7.01c1.67-1.67,4-2.51,6.98-2.51c3.06,0,5.42,0.82,7.07,2.46
		s2.48,3.94,2.48,6.9c0,2.15-0.36,3.91-1.08,5.28s-1.77,2.44-3.13,3.21c-1.37,0.76-3.07,1.15-5.11,1.15c-2.07,0-3.79-0.33-5.14-0.99
		c-1.36-0.66-2.46-1.71-3.3-3.13S300.99,247.88,300.99,245.74z M306.67,245.76c0,1.85,0.34,3.19,1.03,4
		c0.69,0.81,1.63,1.22,2.81,1.22c1.22,0,2.16-0.4,2.83-1.19c0.67-0.79,1-2.22,1-4.27c0-1.73-0.35-2.99-1.05-3.79
		c-0.7-0.8-1.64-1.2-2.84-1.2c-1.14,0-2.06,0.41-2.76,1.22S306.67,243.89,306.67,245.76z"/>
	<path class="st1" d="M323.13,236.54h5.3l6.92,10.17v-10.17h5.35v18.37h-5.35l-6.88-10.09v10.09h-5.34V236.54z"/>
	<path class="st1" d="M356.71,247.39l4.98,1.5c-0.33,1.4-0.86,2.56-1.58,3.5c-0.72,0.94-1.61,1.64-2.68,2.12
		c-1.07,0.48-2.42,0.71-4.07,0.71c-2,0-3.63-0.29-4.89-0.87c-1.27-0.58-2.36-1.6-3.28-3.06c-0.92-1.46-1.38-3.33-1.38-5.61
		c0-3.04,0.81-5.38,2.42-7.01c1.62-1.63,3.9-2.45,6.86-2.45c2.31,0,4.13,0.47,5.46,1.4c1.32,0.94,2.31,2.37,2.95,4.31l-5.01,1.12
		c-0.17-0.56-0.36-0.97-0.55-1.23c-0.32-0.43-0.71-0.77-1.17-1c-0.46-0.23-0.97-0.35-1.54-0.35c-1.29,0-2.27,0.52-2.96,1.55
		c-0.52,0.77-0.78,1.97-0.78,3.62c0,2.04,0.31,3.43,0.93,4.19c0.62,0.76,1.49,1.13,2.61,1.13c1.09,0,1.91-0.3,2.46-0.92
		C356.05,249.44,356.46,248.55,356.71,247.39z"/>
	<path class="st1" d="M364.43,236.54h15.22v3.92h-9.53v2.92h8.84v3.75h-8.84v3.62h9.8v4.16h-15.49V236.54z"/>
	<path class="st1" d="M382.95,236.54h9.44c2.06,0,3.59,0.49,4.62,1.47s1.54,2.37,1.54,4.17c0,1.86-0.56,3.3-1.67,4.35
		c-1.12,1.04-2.82,1.57-5.11,1.57h-3.11v6.82h-5.7V236.54z M388.65,244.37h1.39c1.09,0,1.86-0.19,2.31-0.57
		c0.44-0.38,0.67-0.87,0.67-1.46c0-0.58-0.19-1.07-0.58-1.47c-0.38-0.4-1.11-0.6-2.17-0.6h-1.62V244.37z"/>
	<path class="st1" d="M400.22,236.54h17.26v4.54h-5.79v13.84h-5.68v-13.84h-5.79V236.54z"/>
	<path class="st1" d="M419.06,248.83l5.4-0.34c0.12,0.88,0.35,1.55,0.71,2c0.58,0.74,1.42,1.12,2.51,1.12
		c0.81,0,1.44-0.19,1.87-0.57c0.44-0.38,0.66-0.82,0.66-1.32c0-0.48-0.21-0.9-0.63-1.28s-1.39-0.73-2.91-1.06
		c-2.49-0.56-4.27-1.3-5.33-2.23c-1.07-0.93-1.6-2.11-1.6-3.55c0-0.94,0.27-1.84,0.82-2.68c0.55-0.84,1.37-1.5,2.47-1.98
		s2.61-0.72,4.52-0.72c2.35,0,4.14,0.44,5.37,1.31c1.23,0.87,1.96,2.26,2.2,4.17l-5.35,0.31c-0.14-0.83-0.44-1.43-0.9-1.8
		s-1.08-0.56-1.89-0.56c-0.66,0-1.16,0.14-1.49,0.42c-0.33,0.28-0.5,0.62-0.5,1.02c0,0.29,0.14,0.56,0.41,0.79
		c0.27,0.24,0.9,0.47,1.91,0.68c2.48,0.54,4.26,1.08,5.33,1.62c1.07,0.55,1.86,1.23,2.34,2.04c0.49,0.81,0.73,1.72,0.73,2.72
		c0,1.18-0.33,2.26-0.98,3.26s-1.56,1.75-2.73,2.26c-1.17,0.51-2.64,0.77-4.42,0.77c-3.13,0-5.29-0.6-6.49-1.8
		S419.22,250.69,419.06,248.83z"/>
	<path class="st1" d="M461.65,245.97l3.99,0.89c-0.21,0.74-0.41,1.33-0.6,1.77c-0.19,0.44-0.46,0.96-0.81,1.57l1.92,1.32
		c0.23,0.15,0.54,0.33,0.9,0.54l-2.74,3.16c-0.5-0.27-1.02-0.58-1.56-0.93c-0.54-0.35-1.02-0.65-1.45-0.9
		c-0.89,0.58-1.77,1.01-2.66,1.28c-1.23,0.37-2.62,0.55-4.19,0.55c-2.45,0-4.27-0.51-5.46-1.53c-1.2-1.02-1.79-2.26-1.79-3.71
		c0-1.04,0.35-2.03,1.05-2.96c0.7-0.93,1.85-1.72,3.45-2.36c-0.67-0.81-1.13-1.51-1.38-2.11c-0.25-0.6-0.38-1.21-0.38-1.82
		c0-1.3,0.5-2.38,1.49-3.22c0.99-0.84,2.5-1.27,4.52-1.27c2.06,0,3.58,0.4,4.55,1.2c0.97,0.8,1.45,1.76,1.45,2.88
		c0,0.63-0.15,1.23-0.45,1.8s-0.65,1.04-1.07,1.4c-0.42,0.36-1.17,0.89-2.24,1.6c0.89,0.89,1.83,1.73,2.79,2.49
		C461.24,247.1,461.46,246.55,461.65,245.97z M453.97,247.22c-0.7,0.49-1.17,0.92-1.4,1.27s-0.34,0.72-0.34,1.12
		c0,0.61,0.26,1.15,0.79,1.63c0.53,0.48,1.21,0.71,2.06,0.71c0.91,0,1.93-0.35,3.07-1.07C457.05,250.04,455.66,248.82,453.97,247.22
		z M455.78,242.75c0.66-0.36,1.17-0.75,1.53-1.17s0.54-0.82,0.54-1.2c0-0.39-0.15-0.72-0.45-1s-0.71-0.41-1.24-0.41
		c-0.52,0-0.94,0.15-1.27,0.45c-0.33,0.3-0.49,0.66-0.49,1.06C454.4,241.02,454.86,241.77,455.78,242.75z"/>
	<path class="st1" d="M490.77,247.39l4.98,1.5c-0.33,1.4-0.86,2.56-1.58,3.5c-0.72,0.94-1.61,1.64-2.68,2.12
		c-1.07,0.48-2.42,0.71-4.07,0.71c-2,0-3.63-0.29-4.89-0.87c-1.27-0.58-2.36-1.6-3.28-3.06c-0.92-1.46-1.38-3.33-1.38-5.61
		c0-3.04,0.81-5.38,2.42-7.01c1.62-1.63,3.9-2.45,6.86-2.45c2.31,0,4.13,0.47,5.46,1.4c1.32,0.94,2.31,2.37,2.95,4.31l-5.01,1.12
		c-0.17-0.56-0.36-0.97-0.55-1.23c-0.32-0.43-0.71-0.77-1.17-1c-0.46-0.23-0.97-0.35-1.54-0.35c-1.29,0-2.27,0.52-2.96,1.55
		c-0.52,0.77-0.78,1.97-0.78,3.62c0,2.04,0.31,3.43,0.93,4.19c0.62,0.76,1.49,1.13,2.61,1.13c1.09,0,1.91-0.3,2.46-0.92
		C490.11,249.44,490.51,248.55,490.77,247.39z"/>
	<path class="st1" d="M497.78,245.74c0-3,0.83-5.33,2.51-7.01c1.67-1.67,4-2.51,6.98-2.51c3.06,0,5.42,0.82,7.07,2.46
		s2.48,3.94,2.48,6.9c0,2.15-0.36,3.91-1.08,5.28s-1.77,2.44-3.13,3.21c-1.37,0.76-3.07,1.15-5.11,1.15c-2.07,0-3.79-0.33-5.14-0.99
		c-1.36-0.66-2.46-1.71-3.3-3.13S497.78,247.88,497.78,245.74z M503.46,245.76c0,1.85,0.34,3.19,1.03,4
		c0.69,0.81,1.63,1.22,2.81,1.22c1.22,0,2.16-0.4,2.83-1.19c0.67-0.79,1-2.22,1-4.27c0-1.73-0.35-2.99-1.05-3.79
		c-0.7-0.8-1.64-1.2-2.84-1.2c-1.14,0-2.06,0.41-2.76,1.22S503.46,243.89,503.46,245.76z"/>
	<path class="st1" d="M519.92,236.54h5.3l6.92,10.17v-10.17h5.35v18.37h-5.35l-6.88-10.09v10.09h-5.34V236.54z"/>
	<path class="st1" d="M540.27,248.83l5.4-0.34c0.12,0.88,0.35,1.55,0.71,2c0.58,0.74,1.42,1.12,2.51,1.12
		c0.81,0,1.44-0.19,1.87-0.57c0.44-0.38,0.66-0.82,0.66-1.32c0-0.48-0.21-0.9-0.63-1.28s-1.39-0.73-2.91-1.06
		c-2.49-0.56-4.27-1.3-5.33-2.23c-1.07-0.93-1.6-2.11-1.6-3.55c0-0.94,0.27-1.84,0.82-2.68c0.55-0.84,1.37-1.5,2.47-1.98
		s2.61-0.72,4.52-0.72c2.35,0,4.14,0.44,5.37,1.31c1.23,0.87,1.96,2.26,2.2,4.17l-5.35,0.31c-0.14-0.83-0.44-1.43-0.9-1.8
		s-1.08-0.56-1.89-0.56c-0.66,0-1.16,0.14-1.49,0.42c-0.33,0.28-0.5,0.62-0.5,1.02c0,0.29,0.14,0.56,0.41,0.79
		c0.27,0.24,0.9,0.47,1.91,0.68c2.48,0.54,4.26,1.08,5.33,1.62c1.07,0.55,1.86,1.23,2.34,2.04c0.49,0.81,0.73,1.72,0.73,2.72
		c0,1.18-0.33,2.26-0.98,3.26s-1.56,1.75-2.73,2.26c-1.17,0.51-2.64,0.77-4.42,0.77c-3.13,0-5.29-0.6-6.49-1.8
		S540.43,250.69,540.27,248.83z"/>
	<path class="st1" d="M571.76,236.54h5.67v10.95c0,1.08-0.17,2.11-0.51,3.07c-0.34,0.96-0.87,1.81-1.59,2.53
		c-0.72,0.72-1.48,1.23-2.28,1.52c-1.1,0.41-2.43,0.61-3.97,0.61c-0.89,0-1.87-0.06-2.93-0.19c-1.06-0.13-1.94-0.37-2.65-0.75
		c-0.71-0.37-1.36-0.9-1.95-1.58c-0.59-0.68-0.99-1.39-1.21-2.12c-0.35-1.17-0.53-2.2-0.53-3.11v-10.95h5.67v11.21
		c0,1,0.28,1.78,0.83,2.35s1.33,0.84,2.31,0.84c0.98,0,1.74-0.28,2.3-0.83c0.56-0.56,0.83-1.34,0.83-2.36V236.54z"/>
	<path class="st1" d="M581.18,236.54h5.68v13.85h8.86v4.52h-14.54V236.54z"/>
	<path class="st1" d="M595.71,236.54h17.26v4.54h-5.79v13.84h-5.68v-13.84h-5.79V236.54z"/>
	<path class="st1" d="M615.76,236.54h5.69v18.37h-5.69V236.54z"/>
	<path class="st1" d="M625.56,236.54h5.3l6.92,10.17v-10.17h5.35v18.37h-5.35l-6.88-10.09v10.09h-5.34V236.54z"/>
	<path class="st1" d="M656.15,248.26v-3.82h8.77v7.83c-1.68,1.14-3.16,1.92-4.46,2.34c-1.29,0.41-2.82,0.62-4.59,0.62
		c-2.18,0-3.96-0.37-5.33-1.12c-1.38-0.74-2.44-1.85-3.2-3.32c-0.76-1.47-1.13-3.16-1.13-5.06c0-2,0.41-3.75,1.24-5.23
		s2.04-2.61,3.63-3.38c1.25-0.59,2.92-0.89,5.03-0.89c2.03,0,3.55,0.18,4.56,0.55c1.01,0.37,1.84,0.94,2.51,1.71
		c0.66,0.77,1.16,1.75,1.5,2.94l-5.48,0.98c-0.23-0.69-0.61-1.22-1.15-1.59c-0.54-0.37-1.23-0.55-2.06-0.55
		c-1.25,0-2.24,0.43-2.98,1.3s-1.11,2.23-1.11,4.1c0,1.99,0.37,3.41,1.12,4.26s1.79,1.28,3.13,1.28c0.63,0,1.24-0.09,1.82-0.28
		s1.24-0.5,1.98-0.94v-1.73H656.15z"/>
</g>
<polygon class="st3" points="59.66,253.98 51.66,245.98 59.6,238.04 55.7,234.14 47.76,242.08 39.91,234.23 36.01,238.12 
	43.87,245.98 35.95,253.9 39.84,257.79 47.76,249.87 55.77,257.87 "/>
<polygon class="st4" points="87.69,254 79.68,245.99 87.63,238.05 83.73,234.16 75.79,242.1 67.93,234.24 64.04,238.13 71.9,245.99 
	63.98,253.91 67.87,257.8 75.79,249.88 83.79,257.89 "/>
<polygon class="st5" points="115.53,254 107.53,245.99 115.47,238.05 111.57,234.16 103.63,242.1 95.78,234.24 91.88,238.13 
	99.74,245.99 91.82,253.91 95.71,257.8 103.63,249.88 111.64,257.89 "/>
</svg>
