<?xml version="1.0" encoding="utf-8" ?>
<svg xmlns="http://www.w3.org/2000/svg" width="500" height="500"
	 viewBox="0 0 500 500">
	<path transform="matrix(16.129 0 0 16.129 3.05176e-05 0)"
		  d="M4.63873 15.1338C6.88148 15.2679 14.0326 22.8398 15.5391 24.8242C17.5709 22.5494 22.9884 15.939 25.7374 15.5834C26.4731 15.827 26.2447 15.6653 26.6959 16.3673C26.6351 17.4114 26.5721 17.2221 25.9615 18.1796C21.9622 22.0393 19.3765 24.3106 15.5936 28.568C12.69 24.8567 7.7453 21.4147 4.97972 17.4871C4.37675 16.6308 4.41645 16.1177 4.63873 15.1338Z"/>
	<path transform="matrix(16.129 0 0 16.129 3.05176e-05 0)"
		  d="M4.85706 4.11685C7.18868 4.73028 13.87 11.8748 15.475 13.933C17.4403 11.8363 23.3839 4.83326 25.7286 4.54011C26.4783 4.83914 26.2567 4.65271 26.6648 5.38752C26.6241 6.39305 26.5473 6.22214 25.9469 7.15309C21.9171 10.8517 19.2759 13.5047 15.562 17.5646C12.2973 13.4366 7.59276 10.2274 4.72754 5.95743C4.34068 5.3809 4.65343 4.68041 4.85706 4.11685Z"/>
</svg>