<?xml version="1.0" encoding="UTF-8"?>
<svg id="Ebene_1" data-name="Ebene 1" xmlns="http://www.w3.org/2000/svg" viewBox="0 0 283.5 283.5">
  <defs>
    <style>
      .cls-1 {
        fill: #fff;
        stroke-width: 0;
      }
    </style>
  </defs>
  <path class="cls-1" d="M64.4,123l44.4,44.4L264.2,12c4.5-4.5,12.1-1.3,12.1,5v87.3c0,1.9-.7,3.7-2.1,5l-162.1,162.1c-2.8,2.8-7.4,2.8-10.1,0L9.2,175.2c-2.8-2.9-2.6-7.4.3-10.1l45.1-42.3c2.8-2.6,7.2-2.6,9.9.2ZM12.4,171.7l94.5,94.6,162-162V17.6L113.9,172.7c-2.8,2.8-7.3,2.8-10.1,0l-44.6-44.6c-20.3,17.8-41.4,37.1-46.8,43.5Z"/>
</svg>