<?xml version="1.0" encoding="UTF-8" standalone="no"?>
<svg
   id="Ebene_1"
   data-name="Ebene 1"
   version="1.1"
   viewBox="0 0 495 452.2"
   sodipodi:docname="loading-bee02.svg"
   inkscape:version="1.3.2 (091e20e, 2023-11-25, custom)"
   xmlns:inkscape="http://www.inkscape.org/namespaces/inkscape"
   xmlns:sodipodi="http://sodipodi.sourceforge.net/DTD/sodipodi-0.dtd"
   xmlns="http://www.w3.org/2000/svg"
   xmlns:svg="http://www.w3.org/2000/svg">
  <sodipodi:namedview
     id="namedview14"
     pagecolor="#505050"
     bordercolor="#eeeeee"
     borderopacity="1"
     inkscape:showpageshadow="0"
     inkscape:pageopacity="0"
     inkscape:pagecheckerboard="0"
     inkscape:deskcolor="#505050"
     inkscape:zoom="2.5630251"
     inkscape:cx="247.55902"
     inkscape:cy="226.10001"
     inkscape:window-width="3440"
     inkscape:window-height="1373"
     inkscape:window-x="-9"
     inkscape:window-y="-9"
     inkscape:window-maximized="1"
     inkscape:current-layer="Ebene_1" />
  <defs
     id="defs1">
    <style
       id="style1">
      .cls-1 {
        fill: none;
        stroke: #fff;
        stroke-linecap: round;
        stroke-linejoin: round;
        stroke-width: 15px;
      }
    </style>
  </defs>
  <path
     class="cls-1"
     d="M188.3,240.1l-10.2,17.7c-11.5,14.5-17.7,32.4-17.7,50.8v26.6c0,15.3,4.2,30.3,12.6,43.1,23.6,36,69.7,51,69.7,51,0,0,48.9-12.8,71.8-52.2,7-12,10.5-25.8,10.5-39.7v-27.9c0-18.8-6.4-36.9-18.3-51.5l-10.6-18"
     id="path1" />
  <path
     class="cls-1"
     d="m 335.40046,150.84046 62.31817,20.48917 c 59.94323,19.70834 61.91828,46.35846 67.37805,89.94425 v 0 c 3.33365,26.35994 -15.41507,50.40709 -41.77503,53.74073 v 0 c -27.11862,3.40001 -53.14256,-11.57747 -63.80795,-36.76892 L 301.67645,139.75257"
     id="path2" />
  <path
     class="cls-1"
     d="m 149.74962,151.77747 -59.468249,19.55216 c -59.943235,19.70834 -61.918277,46.35846 -67.378055,89.94425 v 0 c -3.333644,26.35994 15.41508,50.40709 41.775027,53.74073 v 0 c 27.118628,3.40001 53.142567,-11.57747 63.807957,-36.76892 l 57.83725,-138.49312"
     id="path3" />
  <g
     id="g7">
    <line
       class="cls-1"
       x1="194.4"
       y1="201.7"
       x2="189.2"
       y2="210.2"
       id="line3" />
    <line
       class="cls-1"
       x1="218.4"
       y1="210.2"
       x2="215.3"
       y2="218.6"
       id="line4" />
    <line
       class="cls-1"
       x1="290.5"
       y1="201.7"
       x2="295.6"
       y2="210.2"
       id="line5" />
    <line
       class="cls-1"
       x1="266.4"
       y1="210.2"
       x2="269.5"
       y2="218.6"
       id="line6" />
    <line
       class="cls-1"
       x1="242.4"
       y1="214.4"
       x2="242.4"
       y2="222.9"
       id="line7" />
  </g>
  <path
     class="cls-1"
     d="M161.2,311.6s39.7,14.4,81,14.4,81.8-14.4,81.8-14.4"
     id="path7" />
  <path
     class="cls-1"
     d="M167.1,360.4s39.7,14.4,75.1,14.4,76.9-14.4,76.9-14.4"
     id="path8" />
  <path
     class="cls-1"
     d="M173.2,264.8c12.4,4,42,12.4,69.1,12.4s56-8,69.5-12.1"
     id="path9" />
  <path
     class="cls-1"
     d="M271.2,72.3c-7.9-11.1-18-19-29-19s-21.3,7.9-29.4,19.1"
     id="path10" />
  <path
     class="cls-1"
     d="M257.3,103.1c2,10.8,12.2,18.2,22.6,16.6,10.4-1.7,17.2-11.8,15.2-22.6-4.1-21.5-30.5-23.9-30.5-23.9,0,0-9.2,19.1-7.2,29.9Z"
     id="path11" />
  <path
     class="cls-1"
     d="M226.4,103.1c-2,10.8-12.2,18.2-22.6,16.6-10.4-1.7-17.2-11.8-15.2-22.6,4.1-21.5,30.5-23.9,30.5-23.9,0,0,9.2,19.1,7.2,29.9Z"
     id="path12" />
  <g
     id="g14">
    <path
       class="cls-1"
       d="M230.1,56.4l-3.5-20.9c-1.7-10.5-10.8-18.2-21.5-18.2h-14.7"
       id="path13" />
    <path
       class="cls-1"
       d="M256.4,56.4l3.5-20.9c1.7-10.5,10.8-18.2,21.5-18.2h14.7"
       id="path14" />
  </g>
</svg>
