<?xml version="1.0" encoding="UTF-8"?><svg width="100%" height="100%" version="1.1" viewBox="0 0 800 480" xmlns:xlink="http://www.w3.org/1999/xlink"	 xmlns="http://www.w3.org/2000/svg">	<title>Animate SVG: SMIL, Javascript, CSS</title>	<desc>Shows blue Android Robot swallowing Apple, IE and FF Icons / Zeigt den Android-Robot, der Apple, IE und FF		Icons schluckt.	</desc>	<path id="p1"		  d="m770.87-69.903s19.417 70.874-3.8835 103.88c-23.301 33.01-92.233 54.369-182.52 43.689s-286.39-31.572-345.63 11.65c-59.247 43.222-92.234 233.98-92.234 233.98"		  fill="none"/>	<path id="p2"		  d="m875.73 76.699c-97.087 109.71-326.21 217.48-396.12 199.03s-72.08-172.69-177.67-165.05c-63.13 4.5686-166.99 206.8-166.99 206.8"		  fill="none"/>	<path id="p3"		  d="m899.03 209.71c-244.66 126.21-393.19-20.394-445.63-37.864-333.04-110.94-311.65 135.92-311.65 135.92"		  fill="none"/>		<path id="ie"		  d="m0 0c0-5.72-1.5-11.12-4-15.888 0.7-1.8 1.6-4.2 2.5-7.5 2.8-10.6-3.8-17-14.2-16-6.1 0.6-11.896 2.4-17.496 4.9h-1.4c-17.104 0-31.304 12.3-34.104 28.428 7.1-10.228 17.5-15.628 17.5-15.628-7.1 7.4-13.2 14.688-17.8 22.378 0 0.17-0.1 0.26-0.2 0.44-3.8 6.512-6.4 13.282-7.6 20.732-1.6 10.2 3.6 15.6 14.4 14.05 3.8-0.51 10.7-3.85 12.5-4.79 4.704 2.22 9.804 3.51 15.304 3.51 14.896 0 27.796-9.6 32.396-23.04h-18.6c-2.6 4.62-7.596 7.79-13.296 7.79-8.3 0-15.004-6.51-15.404-14.732h49.2c0.1-1.46 0.3-3 0.3-4.65zm-62.1 33.432c-5.8 0.6-13.4-5.74-4.8-20.82 2.7 7.11 7.8 13.11 14.3 17.05-1.8 0.94-6.3 3.43-9.5 3.77zm12.7-39.062c1-7.458 7.404-13.358 15.304-13.358 7.796 0 14.196 5.9 15.296 13.358zm27.6-26.358c14.6-6.8 20 0.4 18.3 7.9-0.2 1-0.9 3.8-1.6 6.1-3.9-6.3-9.6-11.2-16.7-14z"		  fill="#3771c8">		<animateMotion dur="10s" repeatCount="indefinite">			<mpath xlink:href="#p3"/>		</animateMotion>		<animateTransform repeatCount="indefinite"						  attributeName="transform" type="rotate"						  from="0" to="360" begin="0" dur="5s"/>	</path>	<path id="ff"		  d="m0 0c-9.702 0-18.502 3.98-24.702 10.38 0.4 0.31 0.8 0.63 1.1 0.95 0 0 0.2-0.1 0.2-0.16 3.1-3.02 6.5-5.41 10.5-7.11 8.502-3.27 17.102-3.34 25.002-0.32 2.298 0.4 5.298 1.19 7.798 2.66-5.6-4.09-12.498-6.4-19.898-6.4zm12.4 4.69c7.198 4.17 10.798 10.62 10.798 10.62-3.7-3.58-6.6-3.26-6.6-3.26 5.4 4.77 7.2 9.857 7.1 17.497-1-2.5399-3-3.5799-3-3.5799 0.6 5.09 1 8.99-0.3 14.093 0-1.753-1.1-2.153-1.1-2.153-0.2 1.993-1.5 12.493-5.798 11.863-0.5-0.16 0-0.88 0-0.88s-0.8-0.56-1.8 1.03c-0.9 1.36-2.4 2.07-2.8 2.31 0.5-0.32 0.6-1.27 0.6-1.27-3.8 1.67-8.9 2.94-12.7 0 0.5-0.4 2.6 0 2.6 0-5.6-1.59-9.302-2.79-11.902-7.72-0.8-1.67-1-3.18-1-5.013 0-1.75-0.2-5.65 2.4-6.93-2.9-1.7501-5.1-0.7101-6.8 0.48-2.9 2.63-3.1 6.29-2.1 9.473 1 2.31 2.7 4.14 4.4 5.65-3.6-1.91-5.3-5.89-5.6-9.073 0-3.42 1.6-6.45 4.3-7.9601 1.2-0.64 2.7-0.95 3.9-0.71 1.3 0.23 2.5 0.79 3.5 1.5901 0.5 0.47 0.9 0.87 1.3 1.35 0.6-1.35 0.2-3.58 0.1-4.06-0.9-1.19-1.7-2.47-2.2-3.66-0.5-1.27-0.8-2.63-0.8-3.82 0-1.347 0.4-2.547 0.6-3.417 0.8-3.1 2.7-5.73 5.002-7.88-5.602-0.71-9.302 4.38-9.302 4.38h-0.2c-0.3 0.4-1.6 1.99-1.9 3.26 0 0 0.3-2.23 0.8-3.82-2.2-0.64-4.7-0.32-6-0.1v0.1c-3.5 0.72-7.1 3.82-8.6 6.37h-0.2c-2.6 3.897-4.4 12.247-4.4 12.247 0.4-1.3501 1.6-2.9401 1.6-2.9401-1.5 2.2301-1.1 12.333-1.1 12.333 0-1.593 0.9-3.503 0.9-3.503 0.2 3.343 1.7 14.243 11.2 22.443 9.7 8.28 17.702 8.99 17.702 8.99-1.902-0.55-2.302-1.51-2.302-1.51 6.102 2.55 9.902 2.07 9.902 2.07-1-0.56-1.2-1.04-1.2-1.04 6.6 0.32 15.498-2.06 17.498-3.5 2-1.43 3.9-4.37 3.9-4.37 5.2-2.55 8.9-7.64 9.9-10.35 1.3-4.06 0-5.41 0-5.41 2.5-5.413 5.1-10.423 2.5-19.183 0 1.12-1.1 2.79-1.3 3.1099 0.7-9.7069-2.6-15.277-6.6-18.537v0.95c-0.4-1.43-4.5-4.22-4.5-4.22v1.44c7.3 6.76 8 11.527 8 11.527-1.3-4.287-5.1-7.557-8.4-10.577-3.1-3.1-9.898-4.73-9.898-4.73zm-39.402 2.1c-2.8 2.71-3.5 7.33-3.7 10.11 0-0.1 0.2-0.1 0.2-0.16 0.8-1.11 2.3-2.47 4.2-3.58 0.5-0.32 1.2-0.64 2-0.95-3-2.31-2.7-5.42-2.7-5.42zm17.9 11.15c-0.6 1.977-0.5 4.127 0.2 5.877 0.5 1.04 1.1 1.99 1.7 2.95 0.4-0.4 0.902-0.8 1.302-1.04 0.9-0.63 4.3-2.22 4.7-2.7 0.4-0.4 1.3-2.79 0.6-3.497-0.7-0.72-5.4-0.24-6.902-0.56-0.6-0.16-1.2-0.56-1.6-1.03zm0.9 14.317v0zm-3.7 4.38c0 0.47-0.1 1.03-0.1 1.59 0 3.583 1.2 6.683 4.6 8.433l-0.1 0.1c1.902 0 4.702 0 6.202-0.48 2.2-0.79 5.7003-3.5 5.7003-3.5 0.8997-0.95 1.8997-0.48 2.7997-0.48 0.8 0 1.2-1.35 0-2.623-1.1-1.35-5.3-2.71-8.4-0.64-3.2 1.433-7.902 0.48-10.702-2.38z"		  fill="#f60">		<animateMotion dur="10s" repeatCount="indefinite">			<mpath xlink:href="#p2"/>		</animateMotion>		<animateTransform repeatCount="indefinite"						  attributeName="transform" type="rotate"						  from="0" to="360" begin="0" dur="5s"/>	</path>	<path id="ap"		  d="m0-0s-7.299 0.4-10.999 5.7c-3.6 5.3-3.6 11.4-3.6 11.4s6.8-0.3 11.1-5.7c3.399-4.2 3.499-11.4 3.499-11.4zm1.9 16.2c-7.799-0.2-12.399 3.3-15.099 3.3s-6.3-3.4-13.701-3.2c-5.6 0.2-18.2 4.9-18.1 22.699 0.1 17.801 13.5 32.801 19.8 32.901 4.701 0.1 6.701-3.5 13.001-3.4s7.8 3.5 11.999 3.4c9.6-0.2 16.4-19.7 16.4-19.7s-9.7-4.301-9.9-14.001c-0.1-9.6989 7.9-14.999 7.9-14.999s-4.4-6.8-12.3-7z"		  fill="#abc837">		<animateMotion dur="10s" repeatCount="indefinite">			<mpath xlink:href="#p1"/>		</animateMotion>		<animateTransform repeatCount="indefinite"						  attributeName="transform" type="rotate"						  from="0" to="360" begin="0" dur="5s"/>	</path>		<rect x="50" y="277" width="160" height="122" fill="white"/>	<path id="body"		  d="m79.8 225.3v174.4h28.2v-82.1c0-18.6 15.2-33.8 33.8-33.8h2.4c18.6 0 33.8 15.2 33.8 33.8v82.1h73.8v-151.9c-0.2 0.5-0.5 0.9-0.7 1.3-15.1 1.6-34.9 3.5-59.1 5.2-54.2 3.9-99.2-10.4-106.6-17.8-3.1-3.1-4.8-7-5.5-11.2zm62 68.5c-13.3 0-23.8 10.5-23.8 23.8v82.1h50v-82.1c0-13.3-10.5-23.8-23.8-23.8zm-16.6 113.2v36.2c0 15.3 12.3 27.6 27.6 27.6s27.6-12.3 27.6-27.6v-36.2zm64.1 0v36.2c0 12.3-4 22.7-15.1 26.3 25.9-0.1 31.6-14.5 32-26.3v-36.2z"		  fill="#87cdde">	</path>		<path id="head"		  d="m137.99 107.97c-5.5 0.2-9.9 4.8-9.7 10.3l1.5 42.81a89.37 89.37 0 0 1 19.8-5.3l-1.3-38.21c-0.2-5.4-4.8-9.8-10.3-9.6zm24.69 7.7c-5.49 0.2-9.89 4.8-9.69 10.3l1 29.51a89.37 89.37 0 0 1 4.99-0.5 89.37 89.37 0 0 1 15.1 0.8l-1.1-30.51c-0.2-5.5-4.8-9.8-10.3-9.6zm-0.7 42.91a89.37 89.37 0 0 0-79.594 55.7c-1.4 8.504 0.1 16.904 6 22.404 7.704 7.096 53.104 19.896 107.22 14.096 24.1-2.5 43.8-5.1 58.8-7.2a89.37 89.37 0 0 0-92.43-85zm48.73 41.3a9.298 9.298 0 0 1 9.6 8.9 9.298 9.298 0 0 1-9 9.6 9.298 9.298 0 0 1-9.6-8.9 9.298 9.298 0 0 1 9-9.6z"		  fill="#87cdde">		<animateTransform repeatCount="indefinite"						  attributeName="transform" type="rotate"						  from="0 80 224" to="-60 80 224" begin="0" dur="10s"/>	</path></svg>